<mxfile host="app.diagrams.net" modified="2023-10-28T18:31:57.935Z" agent="Mozilla/5.0 (Windows NT 10.0; Win64; x64) AppleWebKit/537.36 (KHTML, like Gecko) Chrome/118.0.0.0 Safari/537.36" etag="5a711vyeeOwzcDN2F7Yr" version="22.0.8" type="device">
  <diagram name="Página-1" id="VE3rlLXLyhUt1KmBEJr7">
    <mxGraphModel dx="1434" dy="758" grid="1" gridSize="10" guides="1" tooltips="1" connect="1" arrows="1" fold="1" page="1" pageScale="1" pageWidth="827" pageHeight="1169" math="0" shadow="0">
      <root>
        <mxCell id="0" />
        <mxCell id="1" parent="0" />
        <mxCell id="xHmQIHmPS2sJ4OpI81Cb-1" value="Funcionário" style="swimlane;fontStyle=1;align=center;verticalAlign=top;childLayout=stackLayout;horizontal=1;startSize=26;horizontalStack=0;resizeParent=1;resizeParentMax=0;resizeLast=0;collapsible=1;marginBottom=0;whiteSpace=wrap;html=1;" vertex="1" parent="1">
          <mxGeometry x="60" y="60" width="720" height="150" as="geometry" />
        </mxCell>
        <mxCell id="xHmQIHmPS2sJ4OpI81Cb-2" value="nome: String&lt;br&gt;morada: String&lt;br&gt;data_nasc: Date" style="text;strokeColor=none;fillColor=none;align=left;verticalAlign=top;spacingLeft=4;spacingRight=4;overflow=hidden;rotatable=0;points=[[0,0.5],[1,0.5]];portConstraint=eastwest;whiteSpace=wrap;html=1;" vertex="1" parent="xHmQIHmPS2sJ4OpI81Cb-1">
          <mxGeometry y="26" width="720" height="54" as="geometry" />
        </mxCell>
        <mxCell id="xHmQIHmPS2sJ4OpI81Cb-3" value="" style="line;strokeWidth=1;fillColor=none;align=left;verticalAlign=middle;spacingTop=-1;spacingLeft=3;spacingRight=3;rotatable=0;labelPosition=right;points=[];portConstraint=eastwest;strokeColor=inherit;" vertex="1" parent="xHmQIHmPS2sJ4OpI81Cb-1">
          <mxGeometry y="80" width="720" height="8" as="geometry" />
        </mxCell>
        <mxCell id="xHmQIHmPS2sJ4OpI81Cb-4" value="+ preencherFormulário(data Date, periodo, int, cliente CLiente, morada, String, descricao String)&lt;br&gt;+ EditarFirmulario(&quot;&quot;);&lt;br&gt;+ ConsultarPedidos();" style="text;strokeColor=none;fillColor=none;align=left;verticalAlign=top;spacingLeft=4;spacingRight=4;overflow=hidden;rotatable=0;points=[[0,0.5],[1,0.5]];portConstraint=eastwest;whiteSpace=wrap;html=1;" vertex="1" parent="xHmQIHmPS2sJ4OpI81Cb-1">
          <mxGeometry y="88" width="720" height="62" as="geometry" />
        </mxCell>
        <mxCell id="xHmQIHmPS2sJ4OpI81Cb-5" value="Administrador" style="swimlane;fontStyle=1;align=center;verticalAlign=top;childLayout=stackLayout;horizontal=1;startSize=26;horizontalStack=0;resizeParent=1;resizeParentMax=0;resizeLast=0;collapsible=1;marginBottom=0;whiteSpace=wrap;html=1;" vertex="1" parent="1">
          <mxGeometry x="240" y="300" width="160" height="60" as="geometry" />
        </mxCell>
        <mxCell id="xHmQIHmPS2sJ4OpI81Cb-7" value="" style="line;strokeWidth=1;fillColor=none;align=left;verticalAlign=middle;spacingTop=-1;spacingLeft=3;spacingRight=3;rotatable=0;labelPosition=right;points=[];portConstraint=eastwest;strokeColor=inherit;" vertex="1" parent="xHmQIHmPS2sJ4OpI81Cb-5">
          <mxGeometry y="26" width="160" height="8" as="geometry" />
        </mxCell>
        <mxCell id="xHmQIHmPS2sJ4OpI81Cb-8" value="+ Registo de Funcionarios()" style="text;strokeColor=none;fillColor=none;align=left;verticalAlign=top;spacingLeft=4;spacingRight=4;overflow=hidden;rotatable=0;points=[[0,0.5],[1,0.5]];portConstraint=eastwest;whiteSpace=wrap;html=1;" vertex="1" parent="xHmQIHmPS2sJ4OpI81Cb-5">
          <mxGeometry y="34" width="160" height="26" as="geometry" />
        </mxCell>
        <mxCell id="xHmQIHmPS2sJ4OpI81Cb-10" value="Extends" style="endArrow=block;endSize=16;endFill=0;html=1;rounded=0;entryX=0.326;entryY=0.988;entryDx=0;entryDy=0;entryPerimeter=0;exitX=0.35;exitY=0.012;exitDx=0;exitDy=0;exitPerimeter=0;" edge="1" parent="1" source="xHmQIHmPS2sJ4OpI81Cb-5" target="xHmQIHmPS2sJ4OpI81Cb-4">
          <mxGeometry width="160" relative="1" as="geometry">
            <mxPoint x="300" y="372" as="sourcePoint" />
            <mxPoint x="514.2239999999999" y="173.99800000000005" as="targetPoint" />
          </mxGeometry>
        </mxCell>
        <mxCell id="xHmQIHmPS2sJ4OpI81Cb-12" value="Diretor" style="swimlane;fontStyle=1;align=center;verticalAlign=top;childLayout=stackLayout;horizontal=1;startSize=26;horizontalStack=0;resizeParent=1;resizeParentMax=0;resizeLast=0;collapsible=1;marginBottom=0;whiteSpace=wrap;html=1;" vertex="1" parent="1">
          <mxGeometry x="230" y="430" width="160" height="120" as="geometry" />
        </mxCell>
        <mxCell id="xHmQIHmPS2sJ4OpI81Cb-16" value="Extends" style="endArrow=block;endSize=16;endFill=0;html=1;rounded=0;entryX=0.706;entryY=0.923;entryDx=0;entryDy=0;entryPerimeter=0;" edge="1" parent="xHmQIHmPS2sJ4OpI81Cb-12" target="xHmQIHmPS2sJ4OpI81Cb-8">
          <mxGeometry width="160" relative="1" as="geometry">
            <mxPoint x="110" as="sourcePoint" />
            <mxPoint x="270" as="targetPoint" />
          </mxGeometry>
        </mxCell>
        <mxCell id="xHmQIHmPS2sJ4OpI81Cb-14" value="" style="line;strokeWidth=1;fillColor=none;align=left;verticalAlign=middle;spacingTop=-1;spacingLeft=3;spacingRight=3;rotatable=0;labelPosition=right;points=[];portConstraint=eastwest;strokeColor=inherit;" vertex="1" parent="xHmQIHmPS2sJ4OpI81Cb-12">
          <mxGeometry y="26" width="160" height="8" as="geometry" />
        </mxCell>
        <mxCell id="xHmQIHmPS2sJ4OpI81Cb-15" value="- Analisar Pedidos()&lt;br&gt;- aceitarPedido()&lt;br&gt;- recusarPedido()&lt;br&gt;- pedirAnalise()" style="text;strokeColor=none;fillColor=none;align=left;verticalAlign=top;spacingLeft=4;spacingRight=4;overflow=hidden;rotatable=0;points=[[0,0.5],[1,0.5]];portConstraint=eastwest;whiteSpace=wrap;html=1;" vertex="1" parent="xHmQIHmPS2sJ4OpI81Cb-12">
          <mxGeometry y="34" width="160" height="86" as="geometry" />
        </mxCell>
        <mxCell id="xHmQIHmPS2sJ4OpI81Cb-17" value="Sistema" style="swimlane;fontStyle=1;align=center;verticalAlign=top;childLayout=stackLayout;horizontal=1;startSize=26;horizontalStack=0;resizeParent=1;resizeParentMax=0;resizeLast=0;collapsible=1;marginBottom=0;whiteSpace=wrap;html=1;" vertex="1" parent="1">
          <mxGeometry x="540" y="300" width="160" height="80" as="geometry" />
        </mxCell>
        <mxCell id="xHmQIHmPS2sJ4OpI81Cb-19" value="" style="line;strokeWidth=1;fillColor=none;align=left;verticalAlign=middle;spacingTop=-1;spacingLeft=3;spacingRight=3;rotatable=0;labelPosition=right;points=[];portConstraint=eastwest;strokeColor=inherit;" vertex="1" parent="xHmQIHmPS2sJ4OpI81Cb-17">
          <mxGeometry y="26" width="160" height="8" as="geometry" />
        </mxCell>
        <mxCell id="xHmQIHmPS2sJ4OpI81Cb-20" value="- calcularOrcamento()&lt;br&gt;- GerarResultados()" style="text;strokeColor=none;fillColor=none;align=left;verticalAlign=top;spacingLeft=4;spacingRight=4;overflow=hidden;rotatable=0;points=[[0,0.5],[1,0.5]];portConstraint=eastwest;whiteSpace=wrap;html=1;" vertex="1" parent="xHmQIHmPS2sJ4OpI81Cb-17">
          <mxGeometry y="34" width="160" height="46" as="geometry" />
        </mxCell>
      </root>
    </mxGraphModel>
  </diagram>
</mxfile>
